# xmcd
#
# Track frame offsets:
#	150
#	20967
#	38440
#	56522
#	77065
#	90715
#	111230
#	126360
#	139960
#	158802
#	175850
#
# Disc length: 2610 seconds
#
# Revision: 1
# Processed by: cddbd v1.5.2PL0 Copyright (c) Steve Scherf et al.
# Submitted via: audiograbber 1.83.01
#
DISCID=910a300b
DTITLE=Eija Ahvo and Paleale - Kirpparilla
DYEAR=1995
DGENRE=Pop
TTITLE0=Oon Elänyt Tän Ennenkin
TTITLE1=Kirpparilla
TTITLE2=Tanjuskan Angiina
TTITLE3=Medaljonki
TTITLE4=Puin Leningin
TTITLE5=Kruunaa, Klaavaa
TTITLE6=Haaveile Vain
TTITLE7=Aurinko
TTITLE8=Kesä On Kesä
TTITLE9=Mehiläinen
TTITLE10=Vuoteessa
EXTD=TR.
EXTT0=
EXTT1=
EXTT2=
EXTT3=
EXTT4=
EXTT5=
EXTT6=
EXTT7=
EXTT8=
EXTT9=
EXTT10=
PLAYORDER=
